<svg width="48" height="32" viewBox="0 0 48 32" fill="none" xmlns="http://www.w3.org/2000/svg">
<path d="M27.66 25.3333C27.3612 25.334 27.066 25.2901 26.796 25.2047C26.526 25.1193 26.2882 24.9947 26.1 24.84L16.44 16.84C16.1458 16.6014 15.985 16.3022 15.985 15.9933C15.985 15.6845 16.1458 15.3853 16.44 15.1467L26.44 7.14668C26.7794 6.87439 27.2673 6.70316 27.7961 6.67065C28.325 6.63814 28.8515 6.74703 29.26 6.97334C29.6684 7.19966 29.9252 7.52488 29.974 7.87745C30.0228 8.23002 29.8594 8.58106 29.52 8.85334L20.58 16L29.22 23.1467C29.4645 23.3424 29.6199 23.5807 29.6676 23.8334C29.7154 24.0862 29.6536 24.3427 29.4895 24.5728C29.3253 24.8028 29.0658 24.9967 28.7416 25.1315C28.4174 25.2663 28.042 25.3363 27.66 25.3333Z" fill="#F35B04"/>
</svg>
