<svg width="33" height="33" viewBox="0 0 33 33" fill="none" xmlns="http://www.w3.org/2000/svg">
<path d="M16.5 0C7.38719 0 0 7.25575 0 16.2064C0 25.1571 7.38719 32.4128 16.5 32.4128C25.6128 32.4128 33 25.1571 33 16.2064C33 7.25575 25.6128 0 16.5 0ZM12.4609 22.9237H9.11969V12.3625H12.4609V22.9237ZM10.7697 11.0659C9.71437 11.0659 9.03203 10.3316 9.03203 9.42336C9.03203 8.49656 9.735 7.78415 10.8127 7.78415C11.8903 7.78415 12.5503 8.49656 12.5709 9.42336C12.5709 10.3316 11.8903 11.0659 10.7697 11.0659ZM24.6641 22.9237H21.3228V17.0708C21.3228 15.7084 20.8381 14.7833 19.6298 14.7833C18.7069 14.7833 18.1586 15.4096 17.9163 16.0123C17.8269 16.2267 17.8045 16.5306 17.8045 16.8327V22.922H14.4616V15.7304C14.4616 14.4119 14.4186 13.3095 14.3739 12.3608H17.2769L17.4298 13.8278H17.4969C17.9369 13.139 19.0145 12.1227 20.8175 12.1227C23.0158 12.1227 24.6641 13.5695 24.6641 16.6791V22.9237Z" fill="#4B5AD1"/>
</svg>
