<svg width="428" height="406" viewBox="0 0 428 406" fill="none" xmlns="http://www.w3.org/2000/svg">
<path d="M195.358 2.16022C144.355 -10.1 107.803 32.8109 95.9027 55.7988C81.877 51.5418 54.0805 50.9458 55.1006 82.6181C56.3757 122.209 109.928 122.209 112.479 159.245C115.029 196.281 62.751 195.004 14.2985 243.534C-34.154 292.064 52.5505 327.823 95.9027 386.57C139.255 445.317 188.983 354.642 256.561 327.823C324.14 301.004 330.515 336.763 396.818 297.173C463.122 257.582 437.621 215.438 412.119 165.63C386.618 115.823 326.69 154.136 283.338 103.052C239.985 51.9675 259.111 17.4855 195.358 2.16022Z" fill="#B8C0FF"/>
</svg>
