<svg width="418" height="406" viewBox="0 0 418 406" fill="none" xmlns="http://www.w3.org/2000/svg">
<path d="M186.013 2.16022C137.45 -10.1 102.646 32.8109 91.3151 55.7988C77.9603 51.5418 51.4935 50.9458 52.4648 82.6181C53.6789 122.209 104.67 122.209 107.098 159.245C109.526 196.281 59.7492 195.004 13.6145 243.534C-32.5203 292.064 50.0367 327.823 91.3151 386.57C132.594 445.317 179.942 354.642 244.288 327.823C308.634 301.004 314.704 336.763 377.836 297.173C440.968 257.582 416.686 215.438 392.405 165.63C368.124 115.823 311.062 154.136 269.784 103.052C228.505 51.9675 246.716 17.4855 186.013 2.16022Z" fill="#B8C0FF"/>
</svg>
