<svg width="291" height="265" viewBox="0 0 291 265" fill="none" xmlns="http://www.w3.org/2000/svg">
<path d="M277.773 159.011H264.545C264.545 107.739 223.144 66.2704 171.955 66.2704H158.727V49.4446C162.75 47.1184 166.09 43.7724 168.412 39.743C170.734 35.7136 171.956 31.1429 171.955 26.4905C171.953 21.8381 170.729 17.268 168.405 13.2398C166.081 9.21162 162.739 5.8673 158.716 3.54317C154.692 1.21904 150.128 -0.00297635 145.483 5.44375e-06C140.838 0.00298724 136.276 1.23086 132.255 3.56016C128.234 5.88945 124.897 9.23805 122.578 13.2692C120.259 17.3004 119.041 21.8721 119.045 26.5244C119.045 36.3284 124.336 44.9401 132.273 49.4446V66.2704H119.045C67.8559 66.2704 26.4545 107.739 26.4545 159.011H13.2273C5.95227 159.011 0 164.973 0 172.26V212.005C0 219.292 5.95227 225.254 13.2273 225.254H26.4545V238.503C26.4545 245.53 29.2417 252.27 34.2029 257.239C39.1641 262.208 45.8929 265 52.9091 265H238.091C252.773 265 264.545 253.209 264.545 238.503V225.254H277.773C285.048 225.254 291 219.292 291 212.005V172.26C291 164.973 285.048 159.011 277.773 159.011ZM117.194 194.517L101.585 210.151L85.9773 194.517L70.3691 210.151L54.7609 194.517L70.3691 178.884L54.7609 163.25L70.3691 147.617L85.9773 163.25L101.585 147.617L117.194 163.25L101.585 178.884L117.194 194.517ZM236.239 194.517L220.631 210.151L205.023 194.517L189.415 210.151L173.806 194.517L189.415 178.884L173.806 163.25L189.415 147.617L205.023 163.25L220.631 147.617L236.239 163.25L220.631 178.884L236.239 194.517Z" fill="white"/>
</svg>
