<svg width="10" height="10" viewBox="0 0 10 10" fill="none" xmlns="http://www.w3.org/2000/svg">
<path d="M9.14239 3.29128C9.11358 3.20642 9.06055 3.13186 8.98985 3.0768C8.91915 3.02174 8.83388 2.98859 8.74455 2.98144L6.1316 2.77382L5.00089 0.27086C4.96488 0.190245 4.90631 0.121774 4.83224 0.0737115C4.75818 0.0256489 4.67179 4.85279e-05 4.58349 6.89236e-08C4.4952 -4.839e-05 4.40878 0.0254571 4.33467 0.0734385C4.26055 0.12142 4.2019 0.189826 4.1658 0.270402L3.0351 2.77382L0.422137 2.98144C0.334346 2.9884 0.250417 3.0205 0.180391 3.0739C0.110366 3.12731 0.0572088 3.19976 0.0272797 3.28258C-0.00264934 3.36541 -0.00808314 3.4551 0.0116285 3.54093C0.0313401 3.62676 0.0753624 3.7051 0.138429 3.76657L2.06939 5.64894L1.38647 8.60611C1.36573 8.69562 1.37238 8.7893 1.40555 8.87499C1.43871 8.96068 1.49687 9.03442 1.57246 9.08664C1.64806 9.13887 1.73761 9.16717 1.82949 9.16787C1.92137 9.16857 2.01134 9.14164 2.08772 9.09057L4.58335 7.42682L7.07897 9.09057C7.15704 9.1424 7.24911 9.16909 7.3428 9.16703C7.43649 9.16498 7.5273 9.13428 7.60303 9.07908C7.67875 9.02387 7.73575 8.9468 7.76636 8.85823C7.79698 8.76966 7.79973 8.67384 7.77426 8.58365L6.93597 5.65032L9.01497 3.7794C9.1511 3.65657 9.20105 3.46499 9.14239 3.29128Z" fill="white"/>
</svg>
